<?xml version="1.0" standalone="no"?>
<!DOCTYPE svg PUBLIC "-//W3C//DTD SVG 20010904//EN"
 "http://www.w3.org/TR/2001/REC-SVG-20010904/DTD/svg10.dtd">
<svg version="1.0" xmlns="http://www.w3.org/2000/svg"
 width="2954.000000pt" height="1508.000000pt" viewBox="0 0 2954.000000 1508.000000"
 preserveAspectRatio="xMidYMid meet">
<metadata>
Created by potrace 1.16, written by Peter Selinger 2001-2019
</metadata>
<g transform="translate(0.000000,1508.000000) scale(0.100000,-0.100000)"
fill="#000000" stroke="none">
<path d="M0 7540 l0 -7540 14770 0 14770 0 0 7540 0 7540 -14770 0 -14770 0 0
-7540z m20799 2600 c272 -72 511 -241 664 -472 203 -305 239 -703 93 -1040
-137 -316 -416 -556 -750 -642 -54 -14 -110 -26 -125 -26 -14 0 -36 -3 -48 -6
l-23 -6 0 -1014 0 -1014 560 0 560 0 0 230 0 230 -55 0 c-46 0 -60 4 -80 25
l-25 24 0 261 c0 320 -10 300 145 300 l105 0 0 565 c0 403 3 571 11 589 17 36
69 52 107 32 38 -20 42 -31 42 -132 l0 -84 1370 0 1370 0 0 84 c0 100 4 112
41 132 36 18 73 10 99 -23 19 -25 20 -42 20 -594 l0 -569 132 0 c191 0 178 22
178 -296 0 -139 -3 -260 -6 -269 -10 -26 -59 -45 -119 -45 l-55 0 0 -229 0
-229 71 -4 c60 -3 74 -8 90 -27 27 -33 24 -77 -6 -106 l-24 -25 -2839 0 -2839
0 -27 21 c-20 16 -26 29 -26 59 0 30 6 43 26 59 26 21 36 21 515 21 l489 0 0
1014 0 1014 -22 6 c-13 3 -35 6 -49 6 -61 0 -230 53 -334 104 -292 143 -493
382 -591 701 -27 85 -28 101 -29 290 0 179 2 208 23 278 39 137 81 231 141
323 176 268 432 439 746 500 108 21 367 12 474 -16z m-4914 -795 c72 -9 131
-18 133 -20 5 -4 -50 -398 -59 -422 -8 -21 -11 -22 -286 -25 -259 -3 -281 -4
-324 -24 -93 -43 -119 -119 -119 -351 l0 -153 310 0 310 0 0 -225 0 -225 -310
0 -310 0 0 -895 0 -895 -340 0 -340 0 -2 893 -3 892 -192 3 -193 2 0 214 0
213 118 7 c64 3 152 9 195 12 l77 7 0 232 c0 214 2 240 24 329 63 247 207 381
476 441 91 21 650 14 835 -10z m-2174 -32 c30 -14 54 -34 70 -59 23 -38 24
-44 24 -250 0 -208 0 -211 -25 -247 -47 -70 -77 -77 -318 -77 -235 0 -259 5
-305 59 -43 52 -49 90 -45 291 3 174 4 187 26 223 46 73 105 87 352 83 152 -2
181 -5 221 -23z m-8647 -57 c175 -29 269 -55 373 -106 189 -92 301 -236 353
-450 33 -138 46 -330 32 -468 -23 -231 -72 -359 -180 -474 -53 -56 -83 -78
-156 -113 -52 -25 -125 -51 -171 -60 -84 -17 -97 -22 -74 -29 209 -61 357
-203 413 -396 46 -159 286 -1029 286 -1039 0 -8 -105 -11 -368 -11 l-369 0
-127 503 c-71 276 -139 525 -152 554 -14 28 -42 67 -64 87 -65 59 -109 66
-427 73 l-283 6 0 -611 0 -612 -350 0 -350 0 0 1565 c0 1529 0 1565 19 1565
10 0 65 5 122 11 205 21 422 27 894 24 390 -2 499 -5 579 -19z m7074 -598 l2
-308 310 0 310 0 0 -225 0 -225 -310 0 -310 0 0 -577 c0 -566 0 -578 21 -620
15 -30 34 -50 63 -66 38 -20 57 -22 236 -25 107 -2 198 -7 203 -11 4 -4 23
-106 43 -227 40 -253 46 -233 -70 -259 -249 -57 -599 -77 -740 -42 -115 29
-193 72 -272 151 -75 75 -113 139 -148 246 -19 63 -20 90 -24 748 l-3 682
-194 0 -195 0 0 214 0 214 138 6 c75 4 163 9 195 12 l57 6 0 309 0 309 343 -2
342 -3 3 -307z m-4410 -273 c239 -37 392 -104 512 -224 45 -46 89 -101 108
-138 100 -191 112 -525 25 -711 -38 -81 -122 -166 -207 -207 -151 -74 -259
-85 -818 -85 -334 0 -408 -2 -408 -13 0 -8 9 -48 19 -89 20 -77 56 -156 88
-194 60 -70 162 -110 312 -123 117 -10 516 2 766 24 103 9 188 15 190 13 1 -2
15 -84 30 -183 15 -99 29 -192 32 -207 5 -25 1 -30 -43 -49 -279 -120 -865
-180 -1254 -128 -264 35 -482 135 -616 282 -173 190 -254 469 -254 879 0 659
202 1004 654 1118 101 26 187 40 321 54 85 9 444 -4 543 -19z m2298 15 c316
-18 707 -61 727 -79 8 -8 -30 -388 -41 -409 -6 -11 -118 -14 -602 -15 -538 -2
-599 -4 -633 -19 -50 -23 -71 -71 -65 -150 8 -112 45 -129 543 -248 446 -106
528 -134 653 -218 161 -110 225 -257 225 -512 0 -242 -49 -387 -164 -494 -99
-92 -213 -139 -414 -171 -138 -23 -567 -31 -837 -16 -223 13 -605 56 -623 71
-8 7 -5 68 10 210 12 110 25 203 28 206 3 3 236 5 519 4 535 -1 669 6 744 39
55 25 74 62 74 142 0 56 -3 64 -32 93 -43 43 -114 66 -534 170 -480 120 -554
149 -680 268 -123 117 -163 224 -171 458 -6 168 9 259 57 355 38 78 76 123
142 169 191 131 531 177 1074 146z m3774 -1170 l0 -1120 -340 0 -340 0 0 1120
0 1120 340 0 340 0 0 -1120z m3075 390 c144 -490 224 -779 247 -892 30 -153
35 -168 54 -168 18 0 25 18 63 158 23 86 137 489 253 895 l212 737 363 0 c200
0 363 -3 363 -6 0 -3 -187 -536 -416 -1183 -430 -1219 -473 -1328 -585 -1496
-72 -108 -234 -269 -331 -329 -96 -59 -220 -110 -320 -130 -97 -20 -356 -22
-380 -3 -12 9 -22 56 -37 174 -30 231 -38 206 77 243 53 18 142 55 197 83 82
42 116 67 186 137 80 79 179 221 179 257 0 10 -23 13 -82 13 -59 0 -95 6 -123
19 -41 18 -100 77 -115 115 -8 17 -514 1442 -701 1969 l-48 137 365 -2 366 -3
213 -725z m2706 -2252 c221 -214 535 -211 749 6 46 47 60 56 90 56 30 0 44 -8
80 -46 64 -67 164 -129 248 -154 91 -28 225 -25 313 7 69 25 159 86 219 147
66 68 92 65 184 -21 112 -106 223 -153 367 -153 139 0 276 60 376 165 45 46
59 55 88 55 29 0 45 -10 94 -57 114 -111 236 -163 381 -163 138 0 262 53 368
158 83 82 111 84 180 13 58 -59 156 -124 225 -148 73 -25 251 -25 325 1 71 24
193 107 232 156 27 34 37 40 69 40 33 0 46 -8 102 -62 108 -105 232 -158 367
-158 146 0 280 58 384 165 45 47 58 55 90 55 44 0 78 -30 78 -70 0 -93 -229
-258 -410 -296 -190 -40 -431 21 -573 146 l-32 28 -38 -34 c-49 -42 -175 -107
-252 -130 -83 -25 -277 -25 -360 0 -77 23 -202 88 -251 130 l-39 33 -39 -33
c-49 -42 -174 -107 -251 -130 -83 -25 -276 -25 -360 0 -69 20 -191 83 -246
126 -20 17 -40 30 -44 30 -4 0 -24 -15 -46 -33 -49 -43 -188 -111 -259 -128
-30 -8 -106 -14 -170 -14 -163 1 -257 32 -397 131 l-62 44 -67 -45 c-128 -88
-213 -119 -349 -131 -173 -14 -352 42 -496 157 l-26 21 -64 -45 c-133 -92
-224 -125 -374 -134 -188 -11 -359 53 -497 187 -71 69 -78 79 -78 114 0 52 23
76 70 76 32 0 46 -9 101 -62z m-16 -648 c114 -116 236 -170 385 -170 150 0
282 58 391 171 67 69 96 68 169 -7 64 -65 162 -126 239 -148 78 -23 213 -21
293 4 79 24 166 80 233 149 68 70 97 70 167 0 116 -116 238 -169 387 -169 148
0 246 41 371 156 92 84 108 84 189 5 113 -111 230 -161 376 -161 151 0 286 59
388 170 39 42 52 50 82 50 30 0 43 -8 78 -46 102 -112 242 -174 391 -174 148
0 264 49 374 158 82 81 110 83 174 16 182 -193 454 -231 668 -93 35 22 85 63
111 90 55 57 96 65 136 27 39 -37 31 -77 -28 -142 -155 -170 -409 -250 -639
-202 -86 18 -219 81 -280 134 -29 24 -46 33 -54 26 -52 -39 -163 -108 -203
-125 -111 -48 -275 -62 -407 -34 -81 17 -200 74 -267 127 -27 21 -51 38 -55
38 -3 0 -24 -15 -46 -34 -59 -51 -193 -114 -278 -132 -87 -19 -257 -14 -331
10 -65 20 -178 78 -233 120 l-47 36 -63 -45 c-255 -182 -578 -179 -824 6 l-52
40 -47 -36 c-70 -53 -198 -113 -278 -130 -194 -41 -383 1 -551 121 l-64 45
-52 -40 c-217 -161 -498 -186 -731 -64 -44 23 -102 67 -149 112 -71 67 -78 77
-78 112 0 49 28 79 73 79 26 0 43 -10 82 -50z"/>
<path d="M20331 9995 c-171 -39 -318 -111 -441 -218 -79 -68 -178 -196 -225
-291 -205 -418 -88 -905 285 -1188 117 -89 296 -163 443 -183 l47 -6 0 178 0
177 -180 181 c-145 146 -180 186 -180 209 0 38 41 76 81 76 28 0 49 -17 156
-122 l123 -122 0 191 c0 240 10 273 85 273 74 0 85 -37 85 -279 l0 -185 123
122 c107 105 128 122 156 122 40 0 81 -38 81 -76 0 -23 -35 -63 -180 -209
l-180 -181 0 -177 0 -178 48 6 c432 59 776 416 821 852 40 387 -162 758 -510
938 -144 74 -238 97 -419 101 -110 3 -174 -1 -219 -11z"/>
<path d="M21980 7630 l0 -170 1370 0 1370 0 0 170 0 170 -1370 0 -1370 0 0
-170z"/>
<path d="M21980 7145 l0 -155 1370 0 1370 0 0 155 0 155 -1370 0 -1370 0 0
-155z"/>
<path d="M21730 6690 l0 -150 1650 0 1650 0 0 150 0 150 -1650 0 -1650 0 0
-150z"/>
<path d="M21890 6150 l0 -230 1480 0 1480 0 0 230 0 230 -1480 0 -1480 0 0
-230z"/>
<path d="M4208 8743 l-58 -4 0 -440 0 -440 343 3 c325 4 346 5 412 27 91 30
155 92 179 174 43 149 41 379 -4 500 -33 88 -109 144 -225 167 -60 12 -537 22
-647 13z"/>
<path d="M7295 7919 c-156 -13 -232 -48 -285 -130 -37 -57 -67 -172 -76 -290
l-7 -90 359 3 c408 3 406 3 453 88 49 89 36 266 -25 339 -32 38 -118 71 -203
77 -36 3 -79 6 -96 7 -16 2 -70 0 -120 -4z"/>
</g>
</svg>
